<svg xmlns="http://www.w3.org/2000/svg" version="1.1" xmlns:xlink="http://www.w3.org/1999/xlink" width="200" height="200"><svg xmlns="http://www.w3.org/2000/svg" version="1.1" xmlns:xlink="http://www.w3.org/1999/xlink" width="200" height="200"><svg xmlns="http://www.w3.org/2000/svg" version="1.1" xmlns:xlink="http://www.w3.org/1999/xlink" viewBox="0 0 200 200"><rect width="200" height="200" fill="url('#gradient')"></rect><defs><linearGradient id="gradient" gradientTransform="rotate(251 0.5 0.5)"><stop offset="0%" stop-color="#000000"></stop><stop offset="100%" stop-color="#646464"></stop></linearGradient></defs><g><g fill="#20b2a6" transform="matrix(5.541791942273001,0,0,5.541791942273001,10.166616160702574,139.09800543558578)" stroke="#018093" stroke-width="0.25"><path d="M9.98 0L9.15-2.66L4.45-2.66L3.63 0L-0.03 0L5.19-14.22L8.41-14.22L13.66 0L9.98 0ZM6.80-10.23L5.27-5.30L8.33-5.30L6.80-10.23ZM26.58-14.22L26.58 0L23.17 0L23.17-5.94L18.13-5.94L18.13 0L14.70 0L14.70-14.22L18.13-14.22L18.13-8.57L23.17-8.57L23.17-14.22L26.58-14.22ZM30.63-3.19L30.63-3.19Q31.42-3.19 31.93-2.73Q32.45-2.27 32.45-1.54Q32.45-0.82 31.93-0.36Q31.42 0.11 30.63 0.11L30.63 0.11Q29.84 0.11 29.33-0.36Q28.82-0.83 28.82-1.54Q28.82-2.26 29.33-2.72Q29.84-3.19 30.63-3.19Z"></path></g></g></svg></svg><style>@media (prefers-color-scheme: light) { :root { filter: contrast(1) brightness(1); } }
@media (prefers-color-scheme: dark) { :root { filter: none; } }
</style></svg>